<svg width="51" height="50" viewBox="0 0 51 50" fill="none" xmlns="http://www.w3.org/2000/svg">
<g clip-path="url(#clip0_486_2598)">
<mask id="mask0_486_2598" style="mask-type:luminance" maskUnits="userSpaceOnUse" x="0" y="0" width="51" height="50">
<path d="M50.6675 25C50.6675 11.1929 39.4746 0 25.6675 0C11.8604 0 0.66748 11.1929 0.66748 25C0.66748 38.8071 11.8604 50 25.6675 50C39.4746 50 50.6675 38.8071 50.6675 25Z" fill="white"/>
</mask>
<g mask="url(#mask0_486_2598)">
<path d="M25.5 45C36.8245 45 46 36.0483 46 25C46 13.9517 36.8245 5 25.5 5C14.1755 5 5 13.9517 5 25C5 36.0483 14.1755 45 25.5 45Z" fill="black"/>
<path d="M25.6675 50C39.4779 50 50.6675 38.8104 50.6675 25C50.6675 11.1896 39.4779 0 25.6675 0C11.8571 0 0.66748 11.1896 0.66748 25C0.66748 38.8104 11.8571 50 25.6675 50ZM12.1071 24.4583L36.2112 15.1646C37.33 14.7604 38.3071 15.4375 37.9446 17.1292L37.9466 17.1271L33.8425 36.4625C33.5383 37.8333 32.7237 38.1667 31.5841 37.5208L25.3341 32.9146L22.3196 35.8188C21.9862 36.1521 21.705 36.4333 21.0591 36.4333L21.5029 30.0729L33.0862 19.6083C33.5904 19.1646 32.9737 18.9146 32.3091 19.3563L17.9946 28.3687L11.8237 26.4437C10.4841 26.0187 10.455 25.1042 12.1071 24.4583Z" fill="white"/>
</g>
</g>
<defs>
<clipPath id="clip0_486_2598">
<rect width="51" height="50" fill="white"/>
</clipPath>
</defs>
</svg>
