<svg width="50" height="50" viewBox="0 0 50 50" fill="none" xmlns="http://www.w3.org/2000/svg">
<g clip-path="url(#clip0_382_1969)">
<path d="M25 0C11.1934 0 0 11.1934 0 25C0 38.8066 11.1934 50 25 50C38.8066 50 50 38.8066 50 25C50 11.1934 38.8066 0 25 0Z" fill="black"/>
<path d="M27.7351 22.7375L38.4373 10.2971H35.9012L26.6085 21.099L19.1864 10.2971H10.626L21.8496 26.6314L10.626 39.6771H13.1622L22.9756 28.27L30.8138 39.6771H39.3743L27.7345 22.7375H27.7351ZM14.076 12.2064H17.9715L35.9024 37.8547H32.0069L14.076 12.2064Z" fill="white"/>
</g>
<defs>
<clipPath id="clip0_382_1969">
<rect width="50" height="50" fill="white"/>
</clipPath>
</defs>
</svg>
